# xmcd
#
# Track frame offsets:
#	150
#	9332
#	15305
#	20805
#	33607
#	41472
#	46052
#	53685
#	68120
#	72465
#	84942
#	95247
#	105475
#	116425
#	128607
#	136385
#	143432
#	149637
#	157542
#	168390
#
# Disc length: 2402 seconds
#
# Revision: 1
# Processed by: cddbd v1.5.1PL0 Copyright (c) Steve Scherf et al.
# Submitted via: CDex 1.50Beta5
#
DISCID=fe096014
DTITLE=さまざまなアーティスト - たのしいどうようスト Disc 2
DYEAR=1900
DGENRE=
TTITLE0=アイアイ
TTITLE1=ぞうさん
TTITLE2=こぶたきつねこ
TTITLE3=とんでったバナナ
TTITLE4=けんこつやまのたぬきさん
TTITLE5=おもちゃのマ-チ
TTITLE6=ごひきのこぶたとチャ-ルストン
TTITLE7=ずいずいずっころばし
TTITLE8=おはながわらった
TTITLE9=きみのなまえ
TTITLE10=くろねこのタンゴ
TTITLE11=はるのおがわ
TTITLE12=ひら、ひら、ひら、
TTITLE13=アビニョンの橋で
TTITLE14=しまうまぐるぐる
TTITLE15=蛍
TTITLE16=ぶらんこ
TTITLE17=たき火
TTITLE18=ゆりかごの歌
TTITLE19=手のひらを太陽に
EXTD=
EXTT0=
EXTT1=
EXTT2=
EXTT3=
EXTT4=
EXTT5=
EXTT6=
EXTT7=
EXTT8=
EXTT9=
EXTT10=
EXTT11=
EXTT12=
EXTT13=
EXTT14=
EXTT15=
EXTT16=
EXTT17=
EXTT18=
EXTT19=
PLAYORDER=
